<?xml version="1.0" encoding="utf-8"?>
<!-- Generator: Adobe Illustrator 23.0.1, SVG Export Plug-In . SVG Version: 6.00 Build 0)  -->
<svg version="1.1" xmlns="http://www.w3.org/2000/svg" xmlns:xlink="http://www.w3.org/1999/xlink" x="0px" y="0px"
	 viewBox="0 0 1920 1080" style="enable-background:new 0 0 1920 1080;" xml:space="preserve">
<style type="text/css">
	.st0{display:none;}
	.st1{fill:#D42027;}
	.st2{fill:none;stroke:#FFFFFF;stroke-miterlimit:10;}
	.st3{fill:#FFFFFF;}
	.st4{fill:none;stroke:#000000;stroke-miterlimit:10;}
</style>
<g id="Layer_1" class="st0">
	
		<image style="display:inline;overflow:visible;" width="1389" height="1389" xlink:href="../Downloads/edukativni gradjanski centar.png"  transform="matrix(0.6835 0 0 0.6835 470 202)">
	</image>
</g>
<g id="Layer_2">
	<path class="st1" d="M959.75,142.99L141.5,424.62v26.64l818.25,279.73L1778,451.26v-26.64L959.75,142.99z M893.15,259.07
		c0,0,39.96,70.41,60.89,89.44c0,0-22.83,43.77-68.5,72.31C885.54,420.81,847.48,358.02,893.15,259.07z M725.69,462.68
		c-30.45-39.96-22.83-108.47-22.83-108.47l19.03,9.51c0,0-7.61,36.16,13.32,79.92L725.69,462.68z M782.78,555.92
		c-7.61,1.9-11.42-9.51-11.42-9.51c-1.9-13.32-19.03-43.77-19.03-43.77h20.93c0,0,9.51,9.51,19.03,41.86
		C792.29,548.31,790.39,554.02,782.78,555.92z M1182.39,588.27c-72.31-34.25-110.37-17.13-110.37-17.13
		c-49.48,26.64-87.53,34.25-87.53,34.25s-28.54,3.81-51.38,0c-22.83-3.81-49.48-26.64-72.31-57.09
		c-22.83-30.45-45.67-49.48-45.67-49.48c-32.35-22.83-74.21-11.42-74.21-11.42s0-43.77,32.35-55.18s72.31,5.71,72.31,5.71
		c38.13,11.61,60.38-7.14,65.48-12.14c1.07-1.05,2.17-2.07,3.29-3.08c8.22-7.31,38.15-35.2,62.53-74.21
		c28.54-45.67,41.86-114.17,41.86-114.17c30.45,51.38,45.67,98.95,47.57,159.84c1.9,60.89-30.45,89.44-30.45,89.44
		c81.82,15.22,140.82-24.74,140.82-24.74C1201.42,559.72,1182.39,588.27,1182.39,588.27z"/>
	<path class="st2" d="M1182.39,588.27c-72.31-34.25-110.37-17.13-110.37-17.13c-49.48,26.64-87.53,34.25-87.53,34.25
		s-28.54,3.81-51.38,0c-22.83-3.81-49.48-26.64-72.31-57.09c-22.83-30.45-45.67-49.48-45.67-49.48
		c-32.35-22.83-74.21-11.42-74.21-11.42s0-43.77,32.35-55.18s72.31,5.71,72.31,5.71c38.13,11.61,60.38-7.14,65.48-12.14
		c1.07-1.05,2.17-2.07,3.29-3.08c8.22-7.31,38.15-35.2,62.53-74.21c28.54-45.67,41.86-114.17,41.86-114.17
		c30.45,51.38,45.67,98.95,47.57,159.84c1.9,60.89-30.45,89.44-30.45,89.44c81.82,15.22,140.82-24.74,140.82-24.74
		C1201.42,559.72,1182.39,588.27,1182.39,588.27z"/>
	<path class="st2" d="M954.04,348.5c0,0-22.83,43.77-68.5,72.31c0,0-38.06-62.8,7.61-161.75
		C893.15,259.07,933.11,329.47,954.04,348.5z"/>
	<path class="st2" d="M735.21,443.65l-9.51,19.03c-30.45-39.96-22.83-108.47-22.83-108.47l19.03,9.51
		C721.89,363.73,714.28,399.88,735.21,443.65z"/>
	<g>
		<path class="st3" d="M689.98,283.56c2.77,1.88,5.11,4,7.35,6.18c2.21,2.19,4.28,4.46,6.2,6.8c3.84,4.69,7.18,9.66,10.15,14.84
			c2.97,5.17,5.5,10.58,7.38,16.34c0.95,2.88,1.72,5.85,2.3,8.93c0.29,1.54,0.52,3.11,0.68,4.72c0.16,1.61,0.26,3.25,0.19,4.99
			l-0.88,0.48c-1.5-0.88-2.83-1.85-4.09-2.86c-1.26-1.01-2.46-2.05-3.6-3.13c-2.28-2.15-4.36-4.41-6.26-6.77
			c-3.82-4.71-7.01-9.76-9.74-15.06c-2.75-5.29-5.11-10.79-6.98-16.56c-0.93-2.89-1.72-5.85-2.36-8.9
			c-0.62-3.06-1.14-6.17-1.22-9.52L689.98,283.56z"/>
	</g>
	<g>
		<path class="st3" d="M779.34,333.62c-1.73,6.04-4.52,11.1-7.57,15.92c-3.09,4.78-6.6,9.18-10.44,13.27
			c-3.84,4.09-7.97,7.92-12.5,11.37c-4.58,3.41-9.37,6.62-15.16,8.91l-0.73-0.68c1.83-5.95,4.64-10.99,7.67-15.82
			c3.08-4.79,6.56-9.21,10.34-13.37c3.77-4.15,7.87-8.01,12.39-11.47c4.56-3.42,9.39-6.61,15.27-8.82L779.34,333.62z"/>
	</g>
	<g>
		<path class="st3" d="M792.59,379.35c-3.13,5.36-6.99,9.71-11.04,13.8c-4.07,4.07-8.44,7.7-13.03,11.04
			c-4.6,3.33-9.42,6.36-14.55,8.95c-5.15,2.57-10.49,4.88-16.57,6.16l-0.59-0.81c3.12-5.37,6.98-9.73,11.03-13.82
			c4.07-4.06,8.45-7.7,13.04-11.03c4.61-3.32,9.43-6.34,14.56-8.94c5.15-2.57,10.49-4.88,16.55-6.18L792.59,379.35z"/>
	</g>
	<g>
		<path class="st3" d="M693.01,428.8c-1.56-0.4-3.05-0.88-4.46-1.45c-1.43-0.55-2.8-1.16-4.15-1.79c-2.7-1.28-5.24-2.73-7.71-4.26
			c-4.91-3.09-9.42-6.64-13.65-10.51c-4.23-3.87-8.2-8.02-11.84-12.55c-1.81-2.27-3.55-4.63-5.17-7.12c-1.61-2.5-3.15-5.08-4.4-7.98
			l0.66-0.75c3.03,0.9,5.77,2.13,8.44,3.44c2.66,1.32,5.21,2.77,7.68,4.3c4.92,3.08,9.52,6.54,13.85,10.28
			c4.34,3.74,8.39,7.8,12.04,12.32c1.81,2.27,3.55,4.63,5.13,7.16c0.79,1.26,1.56,2.56,2.27,3.91c0.73,1.34,1.38,2.76,1.96,4.26
			L693.01,428.8z"/>
	</g>
	<g>
		<path class="st3" d="M685.33,381.14c-2.75-1.52-5.13-3.3-7.41-5.15c-2.27-1.86-4.4-3.83-6.4-5.88
			c-4.04-4.08-7.61-8.51-10.88-13.15c-3.28-4.64-6.24-9.5-8.88-14.6c-2.58-5.14-4.95-10.44-6.39-16.4l0.81-0.59
			c5.21,3.23,9.51,7.14,13.59,11.19c4.03,4.1,7.72,8.43,11.1,12.99c3.39,4.55,6.48,9.33,9.1,14.44c1.32,2.55,2.53,5.18,3.59,7.92
			c1.05,2.75,2,5.56,2.58,8.65L685.33,381.14z"/>
	</g>
	<line class="st4" x1="426.94" y1="768.09" x2="426.94" y2="767.14"/>
	<polygon class="st1" points="1492.56,601.59 1492.56,767.14 1003.69,936.5 915.81,936.5 426.94,767.14 426.94,601.59 
		959.75,786.17 	"/>
	<line class="st4" x1="1492.56" y1="768.09" x2="1492.56" y2="767.14"/>
</g>
</svg>
