<?xml version="1.0" encoding="utf-8"?>
<!-- Generator: Adobe Illustrator 23.0.1, SVG Export Plug-In . SVG Version: 6.00 Build 0)  -->
<svg version="1.1" xmlns="http://www.w3.org/2000/svg" xmlns:xlink="http://www.w3.org/1999/xlink" x="0px" y="0px"
	 viewBox="0 0 1920 1080" style="enable-background:new 0 0 1920 1080;" xml:space="preserve">
<style type="text/css">
	.st0{fill:#D17E21;}
	.st1{fill:#D90C4D;}
	.st2{fill:#C123F6;}
	.st3{fill:#62700B;}
	.st4{fill:#3B7DB7;}
</style>
<g id="Layer_1">
</g>
<g id="Layer_2">
	<g>
		<path class="st0" d="M979.68,85.51c6.72,0.74,13.46,1.47,20.19,2.3c6.69,1.06,13.41,2.05,20.11,3.19l9.99,2.01l5,1.01
			c1.67,0.34,3.34,0.65,4.99,1.08l9.91,2.43l4.96,1.22l2.48,0.62l2.45,0.71l9.82,2.83c3.27,0.96,6.56,1.87,9.78,3l9.71,3.25
			l4.86,1.63l4.8,1.8l9.58,3.65c1.59,0.62,3.21,1.19,4.78,1.86l4.72,2.01c6.28,2.7,12.63,5.29,18.77,8.32
			c49.57,23.31,95.42,55.22,134.47,94.28c39.04,39.05,71.22,85.25,94.11,135.89c11.27,25.39,20.25,51.84,26.55,78.95l2.32,10.18
			l1.9,10.26l0.94,5.13c0.3,1.71,0.67,3.42,0.87,5.15l1.4,10.35l1.38,10.35l0.87,10.4l0.84,10.41c0.21,3.47,0.24,6.95,0.36,10.43
			c1.92,55.65-7.03,111.49-25.49,163.78l-7.34,19.45l-8.21,19.09c-0.65,1.6-1.48,3.13-2.22,4.69l-2.28,4.66l-4.57,9.32
			c-0.38,0.77-0.75,1.56-1.15,2.33l-1.24,2.28l-2.49,4.55l-4.98,9.1c-13.62,24.08-29.41,46.86-46.88,68.19
			c-35.04,42.59-77.18,79.12-124.07,107.43c-23.49,14.07-48.1,26.17-73.51,35.98l-9.51,3.7c-3.21,1.14-6.45,2.19-9.67,3.28
			c-6.46,2.12-12.83,4.49-19.42,6.19l-9.81,2.73c-3.27,0.89-6.51,1.88-9.84,2.57c-6.61,1.52-13.22,3.01-19.82,4.46l-0.24-0.97
			c6.42-2.12,12.84-4.22,19.25-6.27c3.23-0.97,6.36-2.23,9.52-3.4l9.45-3.55c6.35-2.22,12.49-4.99,18.68-7.57
			c3.09-1.32,6.2-2.58,9.26-3.94l9.08-4.34c24.21-11.54,47.51-24.78,69.55-39.8c44.02-30.13,83.02-67.11,115.15-109.13
			c16.12-20.98,30.42-43.28,42.9-66.51l4.53-8.79l2.26-4.39l1.13-2.2c0.36-0.74,0.69-1.5,1.04-2.24c2.73-6,5.54-11.96,8.2-17.97
			l7.48-18.27l6.64-18.58c16.61-49.9,24.61-102.58,22.7-154.94c-1.84-52.35-13.56-104.27-34.33-152.49
			c-20.78-48.24-50.36-92.69-86.33-131.39c-36.06-38.66-78.73-71.28-125.55-96.75c-5.79-3.32-11.79-6.21-17.75-9.22l-4.47-2.25
			c-1.49-0.75-3.03-1.4-4.54-2.1l-9.12-4.16l-4.56-2.08l-4.63-1.91l-9.28-3.83c-3.08-1.33-6.23-2.44-9.37-3.6l-9.42-3.51l-2.36-0.88
			l-2.39-0.79l-4.78-1.57l-9.56-3.15c-1.59-0.56-3.21-1-4.82-1.47l-4.84-1.4l-9.69-2.81c-6.5-1.73-13.04-3.32-19.58-4.98
			l-19.79-4.26L979.68,85.51z"/>
	</g>
	<g>
		<path class="st1" d="M1286.54,372.84c11.86,22.75,21.34,46.83,28.16,71.73c6.9,24.88,11.04,50.58,12.53,76.47
			c3.09,51.81-4.99,104.4-23.1,153.39c-4.53,12.25-9.68,24.28-15.43,36.03c-5.76,11.75-12.14,23.19-19.08,34.3
			c-13.86,22.23-30.09,43.03-48.36,61.92c-36.48,37.81-81.48,67.72-130.98,86.1c-24.71,9.27-50.51,15.63-76.67,19.08
			c-13.08,1.73-26.25,2.74-39.44,3.02c-13.19,0.25-26.38-0.22-39.51-1.39c-13.13-1.15-26.19-3.03-39.09-5.63
			c-12.91-2.58-25.68-5.84-38.24-9.75c-25.08-7.91-49.36-18.31-72.23-31.17c-45.79-25.61-86.12-60.72-117.34-102.43
			c-15.61-20.84-28.98-43.3-39.71-66.85c-5.37-11.78-10.05-23.84-14.13-36.07c-0.98-3.07-2.04-6.11-2.91-9.21
			c-0.88-3.1-1.82-6.18-2.64-9.29c-0.8-3.12-1.63-6.22-2.4-9.34l-2.11-9.4l0.97-0.26l3.08,9.09c1.06,3.02,2.18,6.01,3.26,9.01
			c1.11,2.99,2.33,5.94,3.48,8.91c1.17,2.97,2.46,5.88,3.66,8.83c4.99,11.71,10.6,23.13,16.71,34.24
			c12.2,22.22,26.51,43.17,42.7,62.45c32.36,38.59,72.17,70.51,116.4,93.72c22.13,11.57,45.31,21.08,69.21,28.08
			c11.93,3.55,24.04,6.5,36.27,8.79c12.23,2.28,24.55,3.97,36.93,5.04c12.38,1.05,24.81,1.45,37.22,1.16
			c12.41-0.24,24.8-1.15,37.11-2.75c24.61-3.18,48.84-9.13,72.16-17.6c23.32-8.48,45.66-19.65,66.6-33.04
			c20.93-13.41,40.36-29.18,58.03-46.76c17.65-17.6,33.46-37.1,47.23-57.97c6.88-10.44,13.22-21.25,19.03-32.34
			c5.82-11.09,11.1-22.48,15.79-34.11c18.84-46.52,28.39-96.92,27.85-147.47c-0.29-25.28-3.22-50.57-8.53-75.41
			c-5.38-24.83-13.26-49.2-23.38-72.69L1286.54,372.84z"/>
	</g>
	<g>
		<path class="st2" d="M746.02,314.39c25.35-27.4,55.95-50.18,89.76-66.79c16.89-8.34,34.63-15.02,52.83-20.08
			c18.19-5.1,36.9-8.44,55.76-10.12c18.86-1.66,37.9-1.72,56.8,0.1c18.89,1.82,37.64,5.36,55.92,10.64l6.84,2.02l1.71,0.51
			c0.57,0.18,1.12,0.39,1.69,0.58l3.37,1.18c4.48,1.59,9.02,3.04,13.4,4.93l6.61,2.71c1.09,0.47,2.22,0.87,3.29,1.4l3.23,1.52
			l6.46,3.05c1.07,0.51,2.16,1,3.22,1.54l3.15,1.69c16.91,8.79,32.97,19.27,47.8,31.29l5.47,4.62l2.73,2.31
			c0.91,0.78,1.84,1.52,2.69,2.36c3.47,3.28,6.96,6.53,10.4,9.84l4.93,5.19l2.47,2.6c0.83,0.86,1.65,1.73,2.41,2.64l4.68,5.42
			c1.56,1.81,3.15,3.59,4.58,5.5c12,14.85,22.39,30.97,31.12,47.91c17.4,33.92,28.03,71.18,31.33,108.97
			c1.65,18.9,1.59,37.91-0.16,56.74c-1.84,18.83-5.39,37.45-10.54,55.58c-5.22,18.11-12.08,35.72-20.47,52.51l-6.61,12.42
			l-7.15,12.1l-7.73,11.71l-8.25,11.32l-0.82-0.58c20.19-31.25,35.18-65.6,43.66-101.42c4.32-17.88,7.03-36.12,8.1-54.41
			c1.17-18.29,0.7-36.66-1.41-54.81c-2.18-18.14-5.69-36.12-11.07-53.54c-5.32-17.44-12.37-34.3-20.81-50.39
			c-8.47-16.09-18.51-31.31-29.92-45.43c-11.43-14.1-24.29-27.02-38.33-38.52c-14.04-11.5-29.28-21.55-45.36-30.01l-3-1.63
			c-1.01-0.52-2.05-0.99-3.07-1.48l-6.15-2.94c-4.05-2.07-8.33-3.64-12.5-5.46c-4.15-1.87-8.47-3.32-12.73-4.91l-3.2-1.18
			c-0.54-0.19-1.07-0.4-1.6-0.58l-1.63-0.51l-6.52-2.03c-17.42-5.32-35.36-9-53.5-11.03c-18.14-2.03-36.48-2.57-54.74-1.39
			c-36.5,2.4-72.78,10.94-106.45,25.9c-8.41,3.75-16.73,7.73-24.79,12.22l-3.05,1.64l-1.52,0.82l-1.48,0.89l-5.93,3.58
			c-1.97,1.2-3.98,2.36-5.94,3.57l-5.77,3.85c-15.39,10.25-29.92,21.86-43.52,34.57L746.02,314.39z"/>
	</g>
	<g>
		<path class="st3" d="M796.95,751.73c-35.78-18.13-68.09-43.96-94.59-75.03c-26.52-31.08-47.29-67.44-60.61-106.57l-1.27-3.66
			c-0.43-1.22-0.86-2.44-1.2-3.69l-2.19-7.44c-1.55-4.94-2.68-9.99-3.96-15.01l-0.94-3.77l-0.79-3.8l-1.55-7.62
			c-0.24-1.27-0.55-2.54-0.74-3.82l-0.59-3.84l-1.18-7.69l-0.29-1.92l-0.22-1.93l-0.43-3.87l-0.85-7.74
			c-0.42-5.18-0.72-10.37-1.05-15.55l-0.15-7.8c-0.02-2.6-0.14-5.2-0.07-7.8l0.22-7.8c0.1-2.6,0.09-5.21,0.32-7.8
			c2.37-41.59,13.29-82.83,32.01-120.16c18.63-37.38,44.98-70.74,76.45-97.79c15.72-13.56,32.77-25.49,50.66-35.85
			c17.96-10.23,36.77-18.92,56.23-25.67l14.68-4.75l14.87-4.07c5.01-1.15,10.03-2.22,15.03-3.33c5.04-0.97,10.1-1.77,15.14-2.65
			l1.89-0.32l1.91-0.24l3.81-0.47l7.62-0.92c2.53-0.35,5.09-0.47,7.64-0.67l7.64-0.55c10.2-0.57,20.41-0.74,30.58-0.31
			c40.7,1.47,80.85,10.66,117.45,26.93l-0.35,0.94c-38.34-11.16-77.94-16.24-117.05-14.47c-39.09,1.71-77.58,10.17-113.38,24.75
			c-4.45,1.88-8.85,3.88-13.28,5.78c-4.38,2.02-8.68,4.21-13.02,6.3c-0.54,0.27-1.09,0.52-1.62,0.8l-1.59,0.87l-3.17,1.74
			l-6.34,3.46c-2.14,1.11-4.15,2.45-6.21,3.67l-6.16,3.75c-16.32,10.17-31.64,21.85-45.81,34.72
			c-28.34,25.74-51.79,56.62-68.53,90.78c-16.83,34.13-26.7,71.52-29.63,109.54c-2.91,38.04,1.32,76.69,11.97,113.66
			c10.64,36.98,27.62,72.36,50.21,104.18c11.3,15.91,23.94,30.97,37.85,44.93L763,722.42l11.09,9.88l11.49,9.5
			c3.97,2.99,7.94,6.01,11.89,9.08L796.95,751.73z"/>
	</g>
	<g>
		<path class="st4" d="M809,928.19c-5.24-1.67-10.49-3.36-15.74-5.09c-5.19-1.87-10.35-3.84-15.53-5.76
			c-2.59-0.97-5.1-2.12-7.65-3.19l-7.63-3.26c-1.28-0.52-2.53-1.12-3.78-1.72l-3.75-1.78l-7.51-3.57l-1.88-0.9l-1.84-0.97
			l-3.68-1.94l-7.37-3.88c-2.48-1.26-4.82-2.74-7.24-4.12l-7.2-4.21c-2.43-1.36-4.73-2.92-7.08-4.4l-7.02-4.51
			c-2.37-1.47-4.61-3.12-6.9-4.71l-6.84-4.8c-36.14-26.1-68.15-58.24-94.31-94.73c-26.15-36.5-46.55-77.3-59.85-120.42l-0.65-2.01
			l-0.58-2.03l-1.15-4.07l-2.3-8.14l-0.57-2.04l-0.5-2.06l-0.99-4.11l-1.97-8.23c-0.71-2.73-1.16-5.52-1.72-8.29l-1.61-8.31
			c-0.59-2.76-0.93-5.57-1.38-8.35l-1.28-8.37c-0.48-2.79-0.72-5.6-1.05-8.4l-0.94-8.42c-0.36-2.8-0.52-5.62-0.72-8.44l-0.6-8.45
			c-0.09-1.41-0.22-2.82-0.25-4.23l-0.11-4.24l-0.22-8.47c-0.03-1.41-0.09-2.82-0.1-4.24l0.06-4.24l0.12-8.47l0.06-4.24l0.22-4.23
			l0.46-8.46l0.23-4.23c0.09-1.41,0.26-2.81,0.38-4.22l0.8-8.44l0.41-4.22c0.14-1.41,0.38-2.8,0.56-4.2l1.17-8.4l0.59-4.2
			c0.19-1.4,0.48-2.78,0.72-4.18l1.51-8.34l0.75-4.17c0.25-1.39,0.59-2.76,0.89-4.14l1.83-8.27l0.92-4.14
			c0.31-1.38,0.7-2.74,1.05-4.1l2.19-8.19l1.1-4.09c0.37-1.36,0.82-2.7,1.23-4.05l2.51-8.09l1.26-4.04c0.44-1.34,0.93-2.67,1.4-4
			l2.82-7.98c3.84-10.62,8.16-21.05,12.89-31.3c0.58-1.28,1.14-2.58,1.74-3.85l1.88-3.79l3.76-7.58c0.64-1.26,1.23-2.54,1.9-3.78
			l2.02-3.71l4.04-7.42c1.31-2.49,2.79-4.89,4.24-7.31l4.35-7.24c1.41-2.44,3-4.77,4.53-7.13l4.62-7.07c1.5-2.38,3.2-4.63,4.81-6.94
			l4.89-6.88l1.23-1.71l1.29-1.67l2.59-3.33l5.17-6.66c28.04-35.16,61.76-65.64,99.35-89.73c18.79-12.05,38.52-22.54,58.94-31.25
			c5.16-2.07,10.28-4.18,15.44-6.2c5.22-1.86,10.42-3.76,15.64-5.58l15.86-4.84c5.34-1.41,10.68-2.8,16.02-4.14l0.29,0.96
			c-5.13,2.01-10.25,3.98-15.37,5.92l-15.11,6.45c-4.98,2.27-9.92,4.61-14.87,6.91c-4.88,2.45-9.71,4.99-14.56,7.47
			c-19.21,10.29-37.62,21.91-55.02,34.81c-34.82,25.76-65.55,56.62-91.07,91.16l-4.68,6.55l-2.34,3.27l-1.17,1.64l-1.11,1.68
			l-4.45,6.7c-1.47,2.24-3.02,4.43-4.38,6.74l-4.19,6.86c-1.39,2.29-2.83,4.55-4.1,6.91l-3.93,7.01c-1.31,2.33-2.64,4.66-3.82,7.06
			l-3.68,7.13l-1.84,3.56c-0.61,1.19-1.15,2.42-1.72,3.62l-3.41,7.27l-1.7,3.63c-0.54,1.22-1.05,2.46-1.57,3.69l-3.12,7.39
			l-1.56,3.69l-1.42,3.75l-2.86,7.49l-1.43,3.74l-1.29,3.8c-7.04,20.18-12.47,40.89-16.37,61.87l-1.39,7.88
			c-0.22,1.32-0.49,2.62-0.67,3.95l-0.53,3.97l-1.07,7.93c-0.17,1.32-0.38,2.64-0.51,3.97l-0.38,3.98l-0.79,7.97
			c-0.12,1.33-0.28,2.65-0.38,3.98l-0.23,4l-0.47,7.99l-0.23,4l-0.07,4l-0.14,8.01l-0.07,4c0,1.33,0.05,2.67,0.08,4l0.18,8l0.09,4
			c0.02,1.33,0.16,2.66,0.22,4l0.48,7.99c0.16,2.66,0.28,5.33,0.59,7.99l0.8,7.97c0.28,2.65,0.48,5.32,0.9,7.96l1.12,7.93
			c0.39,2.64,0.68,5.3,1.21,7.92l1.44,7.88l0.72,3.94c0.21,1.32,0.49,2.63,0.79,3.93l1.72,7.83l0.86,3.92l0.43,1.96l0.51,1.94
			l2.03,7.76l1.01,3.88l0.51,1.94l0.58,1.92c11.85,41.11,29.99,80.5,53.71,116.38c23.67,35.91,52.84,68.35,86.35,95.88l6.35,5.09
			c2.12,1.69,4.21,3.44,6.42,5.01l6.54,4.85c2.19,1.61,4.33,3.29,6.6,4.79l6.73,4.6c2.26,1.51,4.46,3.13,6.79,4.53l6.9,4.37
			l3.45,2.19l1.73,1.1l1.77,1.03l7.08,4.1l3.54,2.05c1.18,0.69,2.36,1.38,3.58,2c4.83,2.53,9.65,5.12,14.52,7.62
			c4.92,2.37,9.84,4.8,14.8,7.14c5.03,2.18,10.05,4.39,15.07,6.63L809,928.19z"/>
	</g>
</g>
</svg>
