<?xml version="1.0" encoding="utf-8"?>
<!-- Generator: Adobe Illustrator 23.0.1, SVG Export Plug-In . SVG Version: 6.00 Build 0)  -->
<svg version="1.1" xmlns="http://www.w3.org/2000/svg" xmlns:xlink="http://www.w3.org/1999/xlink" x="0px" y="0px"
	 viewBox="0 0 1920 1080" style="enable-background:new 0 0 1920 1080;" xml:space="preserve">
<style type="text/css">
	.st0{display:none;}
	.st1{fill:#81C32E;stroke:#81C32E;stroke-miterlimit:10;}
	.st2{fill:#006110;}
	.st3{fill:#006110;stroke:#006110;stroke-miterlimit:10;}
</style>
<g id="Layer_2" class="st0">
	
		<image style="display:inline;overflow:visible;" width="837" height="227" xlink:href="../Downloads/zelena dolina.png"  transform="matrix(2.9985 0 0 2.9985 -440 153)">
	</image>
</g>
<g id="Layer_3">
	<path class="st1" d="M786.5,381.5l-8-37c0,0-16-39-49-35s-37,37-37,37c0,42,20,40,20,40c16-1,15-19,15-19
		c-0.42-5.83,2.64-9.06,6.35-10.84c7.16-3.45,15.68-0.86,20.37,5.56c8.14,11.14,0.28,22.28,0.28,22.28s-22,35-67,7s-25-100-25-100
		S783.79,241.48,786.5,381.5z"/>
	<g>
		<path class="st2" d="M677.25,408.94c-3.16-1.09-6.16-2.52-9.1-4.12c-2.96-1.58-5.77-3.42-8.54-5.38
			c-5.49-3.97-10.62-8.64-15.12-14.04c-4.49-5.39-8.34-11.53-11.28-18.2c-2.9-6.69-4.88-13.91-5.78-21.29
			c-0.14-0.92-0.22-1.85-0.29-2.77l-0.22-2.78c-0.13-1.86-0.09-3.7-0.12-5.57c0.01-1.86,0.14-3.7,0.22-5.56
			c0.12-1.86,0.37-3.73,0.57-5.6c1-7.48,3.07-15.1,6.45-22.29l1.3-2.69c0.44-0.89,0.95-1.75,1.44-2.62
			c0.95-1.76,2.04-3.43,3.14-5.11c0.54-0.85,1.15-1.64,1.75-2.44c0.61-0.8,1.2-1.61,1.83-2.39c1.29-1.52,2.55-3.1,3.95-4.52
			c5.47-5.84,11.8-10.73,18.51-14.68c3.36-1.99,6.82-3.71,10.34-5.27c3.54-1.52,7.14-2.84,10.83-3.97c1.84-0.57,3.72-1.08,5.63-1.55
			c0.97-0.22,1.93-0.44,2.94-0.64c1.02-0.2,1.99-0.38,3.27-0.57c0.31-0.05,1-0.13,1.19-0.15l0.85-0.09l1.53-0.13
			c1-0.08,1.95-0.14,2.92-0.19c1.9-0.09,3.78-0.15,5.65-0.15c7.46-0.02,14.87,0.58,22.3,1.85c7.43,1.25,14.87,3.25,22.17,6.11
			c7.29,2.86,14.46,6.61,21.08,11.42c6.62,4.79,12.63,10.63,17.67,17.15c5.03,6.53,9.18,13.69,12.14,21.09
			c2.98,7.39,5.13,14.91,6.48,22.72c2.66,15.64,1.33,31.91-3.01,46.65c-4.34,14.8-11.38,28.17-19.9,39.97
			c-4.26,5.92-8.89,11.48-13.9,16.71c-2.51,2.63-5.09,5.16-7.91,7.69c-0.72,0.64-1.42,1.26-2.25,1.96l-1.68,1.39
			c-1.09,0.91-2.21,1.9-3.32,2.88c-8.99,7.91-17.64,16.6-25.7,25.59c-4,4.53-7.89,9.13-11.54,13.88c-3.63,4.76-7.09,9.61-10.24,14.6
			c-3.11,5-5.98,10.11-8.35,15.35c-0.55,1.32-1.18,2.63-1.69,3.96l-0.79,1.99l-0.4,1l-0.38,1.09c-0.98,2.94-2.05,5.86-2.96,8.83
			c-7.57,23.75-12.87,48.7-15.93,74.4l-1,0.07c-2.87-12.79-4.1-25.88-4.57-39.04c-0.4-13.17,0.21-26.43,1.78-39.68
			c0.38-3.32,0.94-6.61,1.4-9.93l0.19-1.25l0.25-1.32l0.52-2.64c0.36-1.76,0.83-3.47,1.25-5.21c1.82-6.89,4.2-13.55,7.02-19.94
			c2.8-6.4,5.96-12.57,9.43-18.51c3.46-5.95,7.15-11.72,11.11-17.27c7.87-11.17,16.52-21.55,25.98-31.49
			c1.21-1.24,2.41-2.47,3.69-3.73l0.99-0.96l0.67-0.63l0.24-0.24l1.28-1.32c1.82-1.92,3.68-4.03,5.47-6.17
			c3.59-4.3,6.89-8.88,9.9-13.55c5.98-9.37,10.6-19.27,13.26-29.2c2.64-9.95,3.41-19.89,1.88-29.63c-0.74-4.86-2.05-9.78-3.77-14.33
			c-1.73-4.56-3.94-8.69-6.62-12.43c-2.68-3.74-5.87-7.04-9.53-9.95c-3.67-2.9-7.87-5.34-12.45-7.35
			c-9.13-4.04-19.95-6.19-30.74-6.6c-1.34-0.05-2.67-0.07-3.98-0.06l-1.89,0.04l-0.87,0.04l-0.35,0.02l-0.08,0l0.02-0.01
			c0,0,0.14-0.02,0.05-0.01c-0.31,0.02-0.93,0.11-1.48,0.19c-0.57,0.09-1.18,0.2-1.78,0.31c-1.22,0.24-2.47,0.48-3.72,0.79
			c-2.5,0.6-4.98,1.35-7.4,2.22c-2.43,0.85-4.82,1.79-7.09,2.9c-9.18,4.34-16.86,10.46-22.43,18.62l-0.53,0.76l-0.48,0.8l-0.98,1.6
			c-0.64,1.08-1.18,2.23-1.8,3.35c-0.5,1.18-1.05,2.35-1.55,3.55c-0.43,1.24-0.93,2.46-1.33,3.73c-0.36,1.29-0.8,2.56-1.13,3.88
			c-0.29,1.33-0.65,2.67-0.9,4.01c-0.21,1.34-0.49,2.69-0.65,4.04l-0.23,2.03c-0.09,0.68-0.17,1.36-0.19,2.04
			c-0.38,5.45-0.1,10.98,0.89,16.54c0.57,2.75,1.17,5.55,2.1,8.28c0.84,2.77,1.93,5.49,3.14,8.2l0.94,2.03l1.02,2
			c0.68,1.34,1.42,2.66,2.18,3.98c1.51,2.65,3.27,5.17,5.07,7.72c3.66,5.04,7.83,9.89,12.54,14.32L677.25,408.94z"/>
	</g>
	<g>
		<path class="st2" d="M581,376.56c-1.23-4.99-2.25-10.03-3.15-15.1c-0.85-5.08-1.55-10.2-2.1-15.35
			c-1.08-10.31-1.47-20.77-0.99-31.41c0.03-1.33,0.15-2.66,0.28-3.99l0.37-4.01c0.1-1.34,0.33-2.68,0.52-4.03l0.59-4.04
			c0.46-2.7,1.1-5.41,1.66-8.13l1.08-4.06l1.23-4c3.48-10.59,8.44-20.52,14.25-29.94c2.92-4.7,6.06-9.29,9.48-13.69
			c3.45-4.36,7.11-8.6,11.01-12.63c3.91-4.02,8.01-7.89,12.34-11.54c4.35-3.62,8.86-7.1,13.6-10.29c1.17-0.83,2.39-1.57,3.6-2.34
			c1.21-0.76,2.42-1.53,3.67-2.23l3.73-2.15l3.81-2.02l1.91-1l1.95-0.93l3.91-1.85c2.66-1.12,5.29-2.34,8.01-3.33
			c5.39-2.15,10.95-3.84,16.55-5.42l4.23-1.04c1.42-0.35,2.83-0.7,4.22-0.96l4.19-0.85c0.61-0.14,1.64-0.29,2.4-0.41l2.28-0.32
			c5.89-0.76,11.48-1.22,17.15-1.47c5.65-0.27,11.29-0.13,16.94,0.13c1.41,0.05,2.83,0.15,4.24,0.25c1.41,0.11,2.83,0.17,4.24,0.33
			l4.23,0.46l4.23,0.57c5.64,0.82,11.29,1.8,16.88,3.22c5.6,1.33,11.18,2.99,16.69,4.89c5.49,2.01,10.96,4.14,16.29,6.73
			c10.68,5.07,21,11.32,30.41,18.9l3.49,2.89c0.58,0.49,1.17,0.96,1.73,1.46l1.68,1.53c2.23,2.04,4.49,4.06,6.56,6.28l3.16,3.27
			c1.05,1.11,2.06,2.35,3.08,3.52l3.05,3.58c0.05,0.05,0.13,0.15,0.29,0.37l0.41,0.55l0.4,0.55l0.73,1.03
			c0.44,0.64,0.92,1.31,1.33,1.92c3.37,5.01,6.28,9.89,9.01,14.91c2.71,5.01,5.28,10.07,7.51,15.27
			c4.57,10.36,8.3,21.07,11.34,32.04l1.08,4.13c0.36,1.38,0.72,2.75,1.01,4.15c0.6,2.79,1.25,5.57,1.79,8.38
			c0.51,2.82,1.13,5.61,1.54,8.46l0.62,4.27c0.19,1.42,0.48,2.84,0.62,4.27c1.47,11.43,2,23.08,1.57,34.76
			c-0.04,1.46-0.04,2.93-0.13,4.39l-0.33,4.38c-0.23,2.93-0.42,5.86-0.81,8.78c-0.36,2.92-0.66,5.86-1.11,8.78l-1.57,8.72
			c-4.77,23.13-13.34,45.76-25.66,65.61l-4.61,7.46c-1.64,2.49-3.32,4.97-5.05,7.39c-3.46,4.84-7.09,9.53-10.86,14.06
			c-3.77,4.53-7.59,8.98-11.58,13.24l-3,3.18c-0.57,0.58-0.83,0.89-1.22,1.32l-1.09,1.21c-1.45,1.62-2.89,3.28-4.29,4.98
			c-2.82,3.38-5.54,6.84-8.16,10.36c-2.62,3.51-5.16,7.05-7.52,10.64c-1.19,1.79-2.34,3.61-3.48,5.39l-1.71,2.68l-1.64,2.69
			c-2.15,3.59-4.13,7.24-6.05,10.79c-7.57,14.32-13.22,28.14-15.92,41.11c-0.39,1.63-0.58,3.24-0.93,4.85
			c-0.19,0.81-0.23,1.6-0.36,2.41c-0.1,0.8-0.25,1.61-0.34,2.41c-0.16,1.59-0.46,3.21-0.5,4.8c-0.04,0.81-0.17,1.58-0.24,2.45
			l-0.07,2.92c-0.26,7.82-0.22,15.96,0.25,24.46c0.82,16.99,3.99,35.44,10.51,53.3c3.25,8.93,7.41,17.59,12.02,26.12
			c2.32,4.25,4.76,8.46,7.33,12.59c1.28,2.07,2.6,4.11,3.95,6.12l2.04,2.98l1.02,1.45c0.32,0.46,0.72,0.98,0.92,1.32l0.75,0.75
			c0.02,0.1,0.19,0.35,0.32,0.57c0.13,0.21,0.29,0.45,0.44,0.68c0.31,0.46,0.62,0.93,0.97,1.4c0.66,0.95,1.38,1.88,2.08,2.83
			c1.45,1.88,2.97,3.74,4.56,5.56c3.17,3.65,6.59,7.16,10.24,10.47c1.79,1.7,3.71,3.24,5.61,4.86c1.96,1.5,3.9,3.11,5.97,4.5
			c4.05,2.97,8.41,5.51,12.91,7.98l-0.31,0.95c-1.38,0.15-2.77,0.22-4.16,0.28c-1.39,0.06-2.82,0.16-4.19,0.07
			c-1.38-0.06-2.8-0.09-4.19-0.19c-1.4-0.11-2.77-0.29-4.17-0.45c-5.56-0.74-11.11-1.96-16.47-3.74c-1.34-0.45-2.73-0.84-4.04-1.36
			l-3.97-1.55l-3.93-1.69c-1.29-0.6-2.57-1.25-3.86-1.89c-1.29-0.64-2.55-1.34-3.83-2.01c-1.27-0.69-2.5-1.47-3.76-2.22
			c-1.24-0.79-2.49-1.56-3.75-2.42c-0.62-0.41-1.26-0.86-1.9-1.32c-0.32-0.22-0.63-0.46-0.98-0.74c-0.34-0.27-0.63-0.48-1.14-0.96
			l1.26,1.26l-3.8-2.69c-1.16-0.83-2.32-1.67-3.45-2.51c-2.25-1.69-4.4-3.46-6.54-5.23c-2.15-1.77-4.25-3.58-6.26-5.48
			c-2.04-1.88-4.02-3.8-6.01-5.73c-1.94-1.97-3.83-3.99-5.7-6.03c-0.95-1.01-1.87-2.05-2.78-3.09c-0.93-1.03-1.83-2.08-2.7-3.16
			c-1.75-2.15-3.51-4.3-5.2-6.51c-1.67-2.22-3.26-4.51-4.88-6.78c-6.29-9.21-11.69-19.11-16.1-29.52
			c-4.37-10.42-7.8-21.32-10.28-32.47c-2.54-11.14-4.16-22.5-5.09-33.93l-0.35-4.28l-0.19-4.55c-0.21-3.04-0.11-6.07-0.11-9.1
			c0.01-1.52,0.1-3.02,0.16-4.53c0.08-1.5,0.09-3.02,0.26-4.51c0.3-2.99,0.48-6,0.91-8.95c0.69-5.95,1.9-11.77,3.28-17.51
			c0.75-2.84,1.51-5.7,2.35-8.49c0.79-2.83,1.72-5.58,2.66-8.34c0.45-1.39,0.99-2.73,1.49-4.09c0.52-1.35,1-2.73,1.56-4.05
			c1.09-2.67,2.22-5.33,3.38-7.94c2.29-5.27,4.83-10.39,7.52-15.39c5.37-10.02,11.33-19.59,17.86-28.7
			c3.25-4.57,6.64-9.01,10.16-13.35c3.55-4.32,7.21-8.53,11-12.66c1.89-2.07,3.82-4.11,5.83-6.1l2.93-2.89l2.37-2.38
			c3.14-3.18,6.08-6.49,9-9.75c2.92-3.26,5.69-6.6,8.3-10c1.31-1.7,2.56-3.42,3.8-5.16l3.72-5.39c0.62-0.9,1.27-1.78,1.91-2.67
			c0.66-0.88,1.17-1.82,1.77-2.73c1.15-1.83,2.38-3.61,3.57-5.42c0.63-0.89,1.13-1.83,1.67-2.76l1.62-2.78
			c1.08-1.85,2.32-3.64,3.25-5.55c4.22-7.46,7.82-15.17,10.91-23.15c6.08-15.95,8.81-33.36,7.32-50.82
			c-0.14-2.18-0.47-4.36-0.72-6.53c-0.26-2.18-0.72-4.34-1.06-6.51c-0.83-4.33-1.93-8.61-3.15-12.87c-0.58-2.13-1.33-4.23-1.98-6.35
			c-0.7-2.11-1.49-4.19-2.22-6.28c-1.64-4.14-3.29-8.27-5.14-12.33c-1.84-4.05-3.75-8.08-5.78-12l-3.09-5.81
			c-1.04-1.89-2.11-3.8-3.17-5.51l-0.77-1.24l-0.34-0.54l-0.14-0.23l0.14,0.16c0.08,0.09,0.06,0.07,0.01,0l-1.74-2.32
			c-0.59-0.78-1.11-1.57-1.76-2.35l-1.98-2.35c-1.27-1.62-2.73-3.07-4.15-4.57l-1.06-1.13l-1.11-1.08l-2.23-2.18
			c-0.72-0.75-1.54-1.41-2.32-2.11l-2.37-2.08c-1.65-1.32-3.32-2.61-5-3.93c-3.43-2.54-6.97-5.04-10.77-7.24
			c-3.74-2.3-7.73-4.27-11.78-6.21c-4.11-1.82-8.29-3.63-12.64-5.11c-4.32-1.56-8.78-2.88-13.3-4.06c-4.52-1.22-9.14-2.15-13.8-2.91
			c-4.66-0.75-9.38-1.4-14.11-1.72c-4.72-0.34-9.5-0.49-14.11-0.42l-1.68,0.04c-0.56,0.02-0.98,0.02-1.61,0.09l-3.54,0.3
			c-1.19,0.08-2.35,0.23-3.51,0.38l-3.48,0.44c-4.61,0.77-9.25,1.58-13.78,2.83c-2.3,0.53-4.52,1.29-6.8,1.94l-3.35,1.14l-1.68,0.57
			l-1.65,0.64c-4.45,1.64-8.76,3.64-13.03,5.77c-4.26,2.15-8.39,4.59-12.44,7.17c-4.03,2.62-7.93,5.48-11.71,8.49
			c-3.77,3.03-7.38,6.29-10.86,9.7c-3.45,3.43-6.7,7.09-9.78,10.88c-6.15,7.59-11.59,15.83-15.85,24.63
			c-4.29,8.75-7.07,18.28-9.02,28.08c-1.86,9.81-2.88,19.84-3.35,29.92c-0.49,10.07-0.37,20.22,0.44,30.29L581,376.56z"/>
	</g>
	<g>
		<path class="st2" d="M971.69,513.96c-6.37,4.78-12.61,9.58-18.79,14.35c-6.19,4.75-12.27,9.54-18.27,14.34
			c-3.01,2.38-5.95,4.86-8.91,7.25c-2.96,2.41-5.87,4.85-8.74,7.33c-2.9,2.43-5.76,4.89-8.57,7.39l-8.34,7.52
			c-2.74,2.53-5.44,5.08-8.06,7.67c-2.68,2.53-5.27,5.14-7.83,7.75c-5.03,5.31-10,10.54-14.55,16.04
			c-9.15,10.9-17.17,22.28-23.14,34.05l-1.1,2.21l-1.02,2.23c-0.74,1.46-1.33,2.96-2,4.43c-1.21,2.98-2.37,5.97-3.26,8.99
			c-0.5,1.5-0.87,3.02-1.28,4.53c-0.23,0.75-0.34,1.52-0.54,2.27c-0.18,0.76-0.41,1.51-0.55,2.27c-0.3,1.52-0.67,3.03-0.88,4.56
			c-0.12,0.78-0.26,1.48-0.37,2.33l-0.31,2.61c-1.95,13.92-2.7,27.71-2.18,41.37c0.56,13.67,2.69,27.21,7.07,40.63
			c0.28,0.84,0.53,1.69,0.83,2.53l0.93,2.49c0.61,1.68,1.28,3.34,1.95,5.03c1.44,3.29,2.94,6.65,4.67,9.94
			c3.45,6.59,7.52,13.12,12.61,19.41l-0.47,0.88c-4.36-0.44-8.52-1.72-12.56-3.31c-4.06-1.6-7.94-3.63-11.72-5.93
			c-7.45-4.69-14.33-10.57-20.22-17.39c-5.95-6.78-11.03-14.42-15.11-22.55c-4.17-8.1-7.26-16.71-9.49-25.46
			c-4.5-17.53-5.49-35.56-3.96-52.88l0.27-3.26c0.1-1.11,0.29-2.4,0.43-3.59c0.31-2.43,0.78-4.82,1.23-7.22
			c0.96-4.77,2.22-9.47,3.73-14.02c2.97-9.15,6.93-17.78,11.55-25.78c1.12-2.03,2.36-3.95,3.55-5.92c1.25-1.91,2.5-3.82,3.81-5.67
			c2.59-3.72,5.31-7.3,8.18-10.7c2.86-3.41,5.79-6.7,8.81-9.86c2.98-3.2,6.1-6.21,9.31-9.1c6.41-5.76,12.95-11.19,19.84-16.04
			c3.43-2.43,6.88-4.81,10.37-7.08c3.52-2.23,7.1-4.34,10.68-6.42c1.8-1.02,3.58-2.05,5.39-3.03c1.8-0.99,3.65-1.91,5.48-2.84
			c3.68-1.84,7.35-3.65,11.06-5.35c3.74-1.66,7.5-3.24,11.27-4.77c3.76-1.55,7.62-2.88,11.44-4.24c7.66-2.67,15.46-4.94,23.34-6.84
			c7.91-1.84,15.87-3.41,24.05-4.1L971.69,513.96z"/>
	</g>
	<path class="st1" d="M1067.5,599.5c10-9,24-8,24-8c41,5,41,24,41,24s-3,9-15,21s-24,5-24,5c-17-12-26-6-26-6
		c-12.38,9.63-19.55,12.63-22.83,13.57c-1.18,0.34-3.1,0.94-4.25,1.35c-4.51,1.64-9.82,1.33-14.83,0.22
		c-9.02-1.99-17.21-6.67-23.88-13.04c-21.8-20.81-36.21-19.11-36.21-19.11s35,16,39,80s-42,89-42,89l45,2c0,0,13-3,11,7
		s-19,10-19,10h-81c-21-1-35-14-35-14s-29-33-23-106s89-125,89-125s42-27,71-63s8-87,8-87s25,11,28,43c0,0,36,12,46,32
		c5.94,11.88,7.29,18.46,7.41,21.85c0.09,2.45,1.13,4.77,2.82,6.54l13.98,14.71c1.26,1.33,2.07,3.01,2.34,4.82
		c1.37,9.28,2.68,37.56-31.54,40.07c-41,3-71-18-71-18L1067.5,599.5z"/>
	<path class="st3" d="M1166.5,762.5c15.21-32.12,6.41-70.15-20-91c-29.32-23.15-73.79-19.96-101,9c0,0,0,5,6,6s74,3,108,73
		C1159.5,759.5,1161.5,763.5,1166.5,762.5"/>
	<path class="st3" d="M1144.82,670.19c0,0,5.72-20.75,16.78-29.68c0,0,10.97,5.07,13.9,16.09c0,0-16.99-3.1-22.99,7.9
		s-4.54,8.19-4.54,8.19"/>
	<path class="st3" d="M1058.5,815.5c-55-51-15-122-15-122s75-8,113,73C1156.5,766.5,1129.5,813.5,1058.5,815.5"/>
</g>
</svg>
