<?xml version="1.0" encoding="utf-8"?>
<!-- Generator: Adobe Illustrator 23.0.1, SVG Export Plug-In . SVG Version: 6.00 Build 0)  -->
<svg version="1.1" xmlns="http://www.w3.org/2000/svg" xmlns:xlink="http://www.w3.org/1999/xlink" x="0px" y="0px"
	 viewBox="0 0 1366 768" style="enable-background:new 0 0 1366 768;" xml:space="preserve">
<style type="text/css">
	.st0{fill:#008DBF;stroke:#008DBF;stroke-miterlimit:10;}
	.st1{fill:#076FB5;stroke:#076FB5;stroke-miterlimit:10;}
	.st2{fill:#0760B5;stroke:#0760B5;stroke-miterlimit:10;}
	.st3{fill:#44479E;stroke:#44479E;stroke-miterlimit:10;}
	.st4{fill:#36387D;stroke:#36387D;stroke-miterlimit:10;}
	.st5{fill:#313370;stroke:#313370;stroke-miterlimit:10;}
	.st6{fill:#4B4EAD;stroke:#4B4EAD;stroke-miterlimit:10;}
	.st7{fill:#0772C2;stroke:#0772C2;stroke-miterlimit:10;}
	.st8{fill:#0750A9;stroke:#0750A9;stroke-miterlimit:10;}
	.st9{fill:#074797;stroke:#074797;stroke-miterlimit:10;}
	.st10{fill:#073D88;stroke:#073D88;stroke-miterlimit:10;}
	.st11{fill:#073186;stroke:#073186;stroke-miterlimit:10;}
	.st12{fill:#074CA6;stroke:#074CA6;stroke-miterlimit:10;}
	.st13{fill:none;stroke:#00A99D;stroke-miterlimit:10;}
	.st14{opacity:0.13;}
	.st15{opacity:0.13;stroke:#000000;stroke-width:0.25;stroke-miterlimit:10;}
	.st16{fill:none;}
</style>
<g id="Layer_1">
</g>
<g id="Layer_2">
	<path class="st0" d="M907.33,427.17c-33.52-46.15-81.03-79.01-126.34-101.87c33.93-2.98,77.75-1.18,125.65,14.93
		C933.03,362.87,933.26,404.2,907.33,427.17z"/>
	<path class="st1" d="M906.64,340.23c-47.9-16.11-91.72-17.91-125.65-14.93c-65.69-33.16-126.75-45.34-133.81-46.67
		c1.24-6.74,2.82-12.91,4.64-18.55c0,0,90.42-5.42,154.05,17.5l93.1,57.06C901.73,336.33,904.29,338.2,906.64,340.23z"/>
	<path class="st2" d="M805.87,277.58c-63.63-22.92-154.05-17.5-154.05-17.5c12.96-40.31,37.91-53.68,37.91-53.68L762.5,251
		L805.87,277.58z"/>
	<path class="st3" d="M829.2,476.12l-20.09,12.31c-58.8-3.31-113.36,9.22-157.27,25.16c-55.26-14.64-106.34-17.5-106.34-17.5v-12.52
		c31.86,0.8,53.91-1.9,68.96-5.5c23.69-5.67,30.04-13.57,30.04-13.57l41.74-23.81c0,0,94.53-1.99,142.98,14.71
		C829.69,461.77,829.72,468.67,829.2,476.12z"/>
	<path class="st4" d="M651.84,513.59c-57.05,20.7-96.13,47.14-103.19,52.1c-2.03-5.88-3.15-12.28-3.15-19.07v-50.53
		C545.5,496.09,596.58,498.95,651.84,513.59z"/>
	<path class="st4" d="M809.11,488.43L762.5,517l-38.79,23.77c-22.05-11.89-47.37-20.7-71.87-27.18
		C695.75,497.65,750.31,485.12,809.11,488.43z"/>
	<path class="st5" d="M723.71,540.77l-90.07,55.21c-32.78,20.09-73.51,3.05-84.99-30.29c7.06-4.96,46.14-31.4,103.19-52.1
		C676.34,520.07,701.66,528.88,723.71,540.77z"/>
	<path class="st6" d="M829.22,455.4c-48.45-16.7-142.98-14.71-142.98-14.71L786.5,383.5C786.5,383.5,825.1,398.97,829.22,455.4z"/>
	<path class="st7" d="M907.33,427.17c-2.54,2.26-5.32,4.33-8.36,6.19l-69.77,42.76c0.52-7.45,0.49-14.35,0.02-20.72
		c-4.12-56.43-42.72-71.9-42.72-71.9l-74.93-43.27c0,0,26.95-11.21,69.42-14.93C826.3,348.16,873.81,381.02,907.33,427.17z"/>
	<path class="st8" d="M780.99,325.3c-42.47,3.72-69.42,14.93-69.42,14.93L644.5,301.5c0.18-3.27,0.43-6.43,0.76-9.5
		c0.48-4.69,1.13-9.14,1.92-13.37C654.24,279.96,715.3,292.14,780.99,325.3z"/>
	<path class="st9" d="M645.26,292c-0.33,3.07-0.58,6.23-0.76,9.5v36c0,0-27.88,18.11-54.96,46.26
		c-19.93-43.46-44.04-70.12-44.04-70.12v-92.26c0-2.2,0.12-4.36,0.35-6.48C545.85,214.9,620.01,248.5,645.26,292z"/>
	<path class="st10" d="M589.54,383.76c-17.44,18.12-34.9,40.45-44.04,64.74V313.64C545.5,313.64,569.61,340.3,589.54,383.76z"/>
	<path class="st10" d="M644.5,337.5v127c0,0-6.35,7.9-30.04,13.57c-2.93-35.71-13.05-68.43-24.92-94.31
		C616.62,355.61,644.5,337.5,644.5,337.5z"/>
	<path class="st11" d="M614.46,478.07c-15.05,3.6-37.1,6.3-68.96,5.5V448.5c9.14-24.29,26.6-46.62,44.04-64.74
		C601.41,409.64,611.53,442.36,614.46,478.07z"/>
	<path class="st12" d="M689.73,206.4c0,0-24.95,13.37-37.91,53.68c-1.82,5.64-3.4,11.81-4.64,18.55c-0.79,4.23-1.44,8.68-1.92,13.37
		c-25.25-43.5-99.41-77.1-99.41-77.1c4.45-41.34,51.1-65.37,87.79-42.88L689.73,206.4z"/>
	<line class="st13" x1="907.33" y1="427.18" x2="907.33" y2="427.17"/>
	<path class="st14" d="M786,384c0,0,50,21,42,93l-8,5c0,0,10-64-42-94l7-4H786z"/>
	<path class="st15" d="M645,464c0,0-14,23-100,20v-10c0,0,66,5,100-20V464z"/>
	<path class="st15" d="M690.67,206.45L699,212c-43,28-46,95-46,95l-8-5c1.94-45.26,20.18-72.12,32.83-85.46
		c0.69-0.72,1.35-1.4,2-2.04c0.04-0.04,0.08-0.07,0.12-0.11"/>
	<path class="st16" d="M690.67,206.45c0,0-9,5.63-12.84,10.09"/>
</g>
</svg>
